<svg width="24" height="25" viewBox="0 0 24 25" fill="none" xmlns="http://www.w3.org/2000/svg">
<path d="M2.85791 4.40289H4.54208C5.29445 4.40289 5.67063 4.40289 5.95385 4.6072C6.23707 4.81151 6.35598 5.16823 6.59379 5.88168L7.18185 7.64585" stroke="#141C24" stroke-width="1.5" stroke-linecap="round"/>
<path d="M17.9917 18.4557H7.77636C7.61962 18.4557 7.5407 18.4557 7.48017 18.4492C7.33008 18.4325 7.18516 18.3845 7.05476 18.3083C6.92435 18.2321 6.81136 18.1295 6.72306 18.0069C6.63476 17.8844 6.57311 17.7448 6.54209 17.597C6.51107 17.4492 6.51137 17.2965 6.54295 17.1488C6.56791 17.0531 6.59712 16.9586 6.63051 16.8656C6.68673 16.6991 6.71375 16.6159 6.7451 16.5413C6.89898 16.1727 7.15194 15.854 7.47594 15.6204C7.79994 15.3869 8.1823 15.2477 8.58061 15.2182C8.6606 15.2128 8.74816 15.2128 8.92328 15.2128H14.7487" stroke="#141C24" stroke-width="1.5" stroke-linecap="round" stroke-linejoin="round"/>
<path d="M14.4019 15.2128H11.1147C9.73099 15.2128 9.03916 15.2128 8.49867 14.856C7.95709 14.4993 7.68469 13.8637 7.13987 12.5925L6.95718 12.1666C6.08159 10.1235 5.64487 9.10412 6.12482 8.37446C6.60694 7.64587 7.7182 7.64587 9.93854 7.64587H15.6461C18.1324 7.64587 19.3745 7.64587 19.8436 8.45337C20.3117 9.26087 19.6955 10.3397 18.4621 12.4973L18.1562 13.0346C17.5487 14.0972 17.2449 14.629 16.7412 14.9209C16.2385 15.2128 15.6256 15.2128 14.4019 15.2128Z" stroke="#141C24" stroke-width="1.5" stroke-linecap="round"/>
<path d="M17.4511 22.2391C18.0481 22.2391 18.5321 21.7551 18.5321 21.1581C18.5321 20.5611 18.0481 20.0771 17.4511 20.0771C16.8541 20.0771 16.3701 20.5611 16.3701 21.1581C16.3701 21.7551 16.8541 22.2391 17.4511 22.2391Z" fill="#141C24"/>
<path d="M7.72259 22.2391C8.3196 22.2391 8.80357 21.7551 8.80357 21.1581C8.80357 20.5611 8.3196 20.0771 7.72259 20.0771C7.12558 20.0771 6.6416 20.5611 6.6416 21.1581C6.6416 21.7551 7.12558 22.2391 7.72259 22.2391Z" fill="#141C24"/>
</svg>
