<svg width="24" height="25" viewBox="0 0 24 25" fill="none" xmlns="http://www.w3.org/2000/svg">
<path d="M15.9239 16.6948C16.2375 16.4097 16.2492 15.9202 15.9494 15.6205L12.7 12.371V7.32104C12.7 6.90683 12.3642 6.57104 11.95 6.57104C11.5358 6.57104 11.2 6.90683 11.2 7.32104V12.5568C11.2 12.822 11.3054 13.0764 11.4929 13.2639L14.8994 16.6705C15.1797 16.9507 15.6306 16.9614 15.9239 16.6948Z" fill="#141C24"/>
<path d="M12 22.571C10.6333 22.571 9.34167 22.3085 8.125 21.7835C6.90833 21.2585 5.84583 20.5419 4.9375 19.6335C4.02917 18.7252 3.3125 17.6627 2.7875 16.446C2.2625 15.2294 2 13.9294 2 12.546C2 11.1794 2.2625 9.88771 2.7875 8.67105C3.3125 7.45438 4.02917 6.39605 4.9375 5.49605C5.84583 4.59605 6.90833 3.88354 8.125 3.35854C9.34167 2.83354 10.6417 2.57104 12.025 2.57104C13.3917 2.57104 14.6833 2.83354 15.9 3.35854C17.1167 3.88354 18.175 4.59605 19.075 5.49605C19.975 6.39605 20.6875 7.45438 21.2125 8.67105C21.7375 9.88771 22 11.1877 22 12.571C22 13.9377 21.7375 15.2294 21.2125 16.446C20.6875 17.6627 19.975 18.7252 19.075 19.6335C18.175 20.5419 17.1167 21.2585 15.9 21.7835C14.6833 22.3085 13.3833 22.571 12 22.571ZM12 21.071C14.3667 21.071 16.375 20.2419 18.025 18.5835C19.675 16.9252 20.5 14.921 20.5 12.571C20.5 10.2044 19.675 8.19604 18.025 6.54604C16.375 4.89604 14.3667 4.07104 12 4.07104C9.65 4.07104 7.64583 4.89604 5.9875 6.54604C4.32917 8.19604 3.5 10.2044 3.5 12.571C3.5 14.921 4.32917 16.9252 5.9875 18.5835C7.64583 20.2419 9.65 21.071 12 21.071Z" fill="#141C24"/>
</svg>
