<svg width="24" height="25" viewBox="0 0 24 25" fill="none" xmlns="http://www.w3.org/2000/svg">
<path fill-rule="evenodd" clip-rule="evenodd" d="M16 8.57104C16 10.7802 14.2091 12.571 12 12.571C9.79086 12.571 8 10.7802 8 8.57104C8 6.36191 9.79086 4.57104 12 4.57104C14.2091 4.57104 16 6.36191 16 8.57104ZM14.5 8.57104C14.5 9.95176 13.3807 11.071 12 11.071C10.6193 11.071 9.5 9.95176 9.5 8.57104C9.5 7.19033 10.6193 6.07104 12 6.07104C13.3807 6.07104 14.5 7.19033 14.5 8.57104Z" fill="#141C24"/>
<path fill-rule="evenodd" clip-rule="evenodd" d="M4 18.343V20.571H20V18.343C20 16.6757 18.9657 15.1832 17.4045 14.5977L17.2669 14.5461C13.8711 13.2727 10.1289 13.2727 6.73315 14.5461L6.59551 14.5977C5.03429 15.1832 4 16.6757 4 18.343ZM7.25984 15.9506C10.316 14.8045 13.684 14.8045 16.7402 15.9506L16.8778 16.0022C17.8536 16.3681 18.5 17.3009 18.5 18.343V19.071H5.5V18.343C5.5 17.3009 6.14643 16.3681 7.12219 16.0022L7.25984 15.9506Z" fill="#141C24"/>
</svg>
