<svg width="102" height="40" viewBox="0 0 102 40" fill="none" xmlns="http://www.w3.org/2000/svg">
<path d="M11.8483 8.15896V17.8214H1.13868V8.15896H3.16332V16.2016H5.53703V8.15896H7.44996V16.2016H9.83763V8.15896H11.8483ZM21.1768 17.8214H19.1521V13.9396C19.1521 12.6178 19.2499 11.3798 19.4454 10.2255L16.4014 17.8214H13.8881V8.15896H15.9127V12.0826C15.9127 12.8645 15.8848 13.5161 15.829 14.0374C15.7824 14.5494 15.7126 15.1172 15.6195 15.7409L18.7193 8.15896H21.1768V17.8214ZM33.6313 12.9343C33.6313 14.3213 33.2311 15.3732 32.4305 16.0899C31.63 16.7974 30.5176 17.1744 29.0934 17.2209V18.3519H27.0967V17.207C25.6538 17.1418 24.5368 16.7602 23.7455 16.062C22.9543 15.3546 22.5587 14.3259 22.5587 12.9762C22.5587 11.5892 22.959 10.542 23.7595 9.83452C24.56 9.11775 25.6724 8.73609 27.0967 8.68955V7.64233H29.0934V8.70351C30.5362 8.76868 31.6532 9.15498 32.4445 9.86244C33.2357 10.5606 33.6313 11.5845 33.6313 12.9343ZM29.0096 15.9084C29.8939 15.8526 30.5362 15.5873 30.9365 15.1125C31.3367 14.6378 31.5369 13.9117 31.5369 12.9343C31.5369 11.9755 31.3321 11.2587 30.9225 10.784C30.5129 10.3093 29.8753 10.0486 29.0096 10.0021V15.9084ZM24.6531 12.9762C24.6531 13.935 24.8579 14.6518 25.2675 15.1265C25.6771 15.6012 26.3147 15.8619 27.1804 15.9084V10.0021C26.2961 10.0579 25.6538 10.3232 25.2535 10.798C24.8533 11.2727 24.6531 11.9988 24.6531 12.9762ZM40.928 8.15896L40.7046 9.7647H38.261V17.8214H36.2085V9.7647H33.6393V8.15896H40.928Z" fill="#F4511E"/>
<path d="M4.12676 24.4796C5.38343 24.4796 6.35619 24.7403 7.04503 25.2616C7.74318 25.7828 8.09225 26.5601 8.09225 27.5934C8.09225 28.6732 7.74783 29.4877 7.05899 30.0369C6.37015 30.5768 5.44859 30.8468 4.29432 30.8468H3.19124V34.142H1.13868V24.4796H4.12676ZM4.12676 29.3388C4.72252 29.3388 5.17864 29.2038 5.49514 28.9338C5.81163 28.6639 5.96988 28.2171 5.96988 27.5934C5.96988 26.5043 5.3462 25.9597 4.09884 25.9597H3.19124V29.3388H4.12676ZM11.4954 24.4796V34.142H9.44285V24.4796H11.4954ZM19.5513 24.4796V26.0575L15.2228 32.4804H19.6211L19.3977 34.142H12.8211V32.5921L17.2334 26.0993H13.2679V24.4796H19.5513ZM26.9964 24.4796V26.0575L22.6679 32.4804H27.0662L26.8428 34.142H20.2662V32.5921L24.6785 26.0993H20.7131V24.4796H26.9964ZM33.6297 34.142L33.0851 31.9778H30.0552L29.5106 34.142H27.3743L30.3484 24.4796H32.8478L35.8079 34.142H33.6297ZM30.4461 30.4558H32.6942L31.5632 26.0016L30.4461 30.4558Z" fill="#F4511E"/>
<circle cx="60.5" cy="20.5" r="15.5" fill="#F4511E"/>
</svg>
